<svg width="20" height="20" viewBox="0 0 20 20" fill="none" xmlns="http://www.w3.org/2000/svg">
<path d="M3.84593 7.47452C3.84689 7.734 3.62934 7.94511 3.35998 7.94608C3.09062 7.94705 2.87143 7.73737 2.87038 7.47789C2.86716 6.61396 2.63286 6.07015 2.27226 5.73462C1.90765 5.39537 1.33222 5.19263 0.480853 5.18099C0.212839 5.17732 -0.00189004 4.96602 1.25461e-05 4.70782C0.00191513 4.44962 0.219736 4.24128 0.487777 4.24128C1.43348 4.24128 1.99523 4.00063 2.33075 3.65111C2.67375 3.29379 2.86298 2.73764 2.8704 1.94188C2.87277 1.68779 3.0844 1.48155 3.34812 1.47632C3.61184 1.47109 3.8321 1.66878 3.84532 1.92256C3.88912 2.7635 4.12119 3.3279 4.48162 3.68188C4.83607 4.02998 5.38615 4.24434 6.22669 4.24128C6.4944 4.2403 6.7129 4.44737 6.71627 4.70524C6.71964 4.96311 6.50662 5.17541 6.23897 5.18093C5.31671 5.19993 4.74153 5.43484 4.39292 5.78362C4.04325 6.13347 3.84271 6.67677 3.84593 7.47452Z" fill="white"/>
<path d="M0.0385246 10.1223C-0.185842 8.65812 0.584501 7.48136 1.96622 6.94268L2.23705 7.95405C2.54656 9.10989 4.25052 9.10989 4.56004 7.95405L4.84219 6.90039C4.95124 6.49318 5.28134 6.17518 5.70407 6.07014L6.68567 5.82622C6.70521 5.82307 6.72476 5.81896 6.74427 5.81384C6.75857 5.81009 6.77261 5.80587 6.78637 5.8012L6.79786 5.79834C7.99773 5.50018 7.99773 3.85875 6.79786 3.56059L6.14206 3.39763C6.05165 3.17556 6.04195 2.94229 6.18299 2.7376C6.95199 1.62156 8.45952 1.99372 9.28664 2.43393V19.5935C8.58049 20.0878 7.853 20.1557 7.18194 19.6621C6.82474 19.3994 6.95928 18.8755 6.88486 18.4486C6.7918 17.9147 6.0639 17.5799 5.6989 17.9914C5.62786 18.0715 5.5591 18.1582 5.49044 18.2447C5.20605 18.6031 4.92345 18.9593 4.48845 18.8375C3.11627 18.4536 2.33496 17.1141 2.82816 15.9536C1.85293 15.1912 1.71573 14.2775 1.83795 13.5991C1.99634 13.1597 2.27925 12.8157 2.6053 12.5797C3.3099 12.0697 4.09873 12.1006 4.53815 12.5229C4.80793 12.7822 5.2429 12.7798 5.50967 12.5176C5.77645 12.2554 5.77401 11.8326 5.50423 11.5733C4.4373 10.5479 2.8529 10.7355 1.78466 11.5087C1.3999 11.7872 0.83053 11.8232 0.569916 11.4335C0.314322 11.0512 0.113235 10.6099 0.0385246 10.1223Z" fill="white"/>
<path d="M10.6891 2.43393V19.5935C11.3967 20.0876 12.1257 20.1556 12.7982 19.6627C13.1565 19.4 13.0213 18.8746 13.0971 18.447C13.1915 17.9141 13.92 17.5804 14.2856 17.9913C14.3572 18.0718 14.4264 18.1589 14.4956 18.2459C14.78 18.6037 15.0625 18.9591 15.4972 18.8381C16.874 18.4549 17.6582 17.1147 17.1635 15.9536C18.1412 15.1912 18.2787 14.2775 18.1562 13.5991C17.9974 13.1597 17.7138 12.8157 17.387 12.5797C16.6806 12.0697 15.8898 12.1006 15.4493 12.5229C15.1789 12.7822 14.7428 12.7798 14.4754 12.5176C14.208 12.2554 14.2104 11.8326 14.4808 11.5733C15.5504 10.5479 17.1387 10.7355 18.2096 11.5087C18.5955 11.7873 19.1659 11.8236 19.4275 11.4332C19.6837 11.0511 19.8852 10.6098 19.9601 10.1223C20.2283 8.37663 19.079 7.03953 17.1635 6.70525C17.3697 5.8491 16.9894 4.87558 16.2116 4.37156C15.9936 4.28023 15.7698 4.23264 15.5546 4.22512C14.8644 4.20097 14.2052 4.57833 13.972 5.4064C13.8851 5.71476 13.5564 5.89718 13.2377 5.81384C12.9191 5.73051 12.7311 5.41297 12.8179 5.10461C12.9571 4.61035 13.1989 4.20235 13.5085 3.88465C13.8217 3.56316 14.0536 3.10371 13.7998 2.73676C13.0287 1.62174 11.518 1.99383 10.6891 2.43393Z" fill="white"/>
<path d="M17.7521 4.33314C17.9325 4.33249 18.0782 4.1911 18.0776 4.01731C18.0754 3.48303 18.2097 3.11915 18.4439 2.88485C18.6774 2.65125 19.0626 2.49392 19.6803 2.4812C19.8596 2.4775 20.0022 2.33532 20 2.16261C19.9977 1.9899 19.8514 1.85122 19.6721 1.85188C19.1091 1.85393 18.7407 1.71036 18.5033 1.47722C18.2619 1.24015 18.1065 0.862144 18.0772 0.29893C18.0683 0.128963 17.9208 -0.00343276 17.7442 6.78418e-05C17.5676 0.00356937 17.4258 0.141698 17.4242 0.311872C17.4193 0.844824 17.2925 1.21731 17.0628 1.45661C16.8381 1.6907 16.4619 1.85187 15.8285 1.85187C15.649 1.85187 15.5031 1.99141 15.5018 2.16434C15.5005 2.33726 15.6444 2.47878 15.8239 2.48124C16.394 2.48903 16.7794 2.62482 17.0236 2.85203C17.2651 3.07675 17.4221 3.44096 17.4242 4.01957C17.4249 4.19335 17.5717 4.33379 17.7521 4.33314Z" fill="white"/>
</svg>
