<svg width="19" height="18" viewBox="0 0 19 18" fill="none" xmlns="http://www.w3.org/2000/svg">
<path d="M10.486 0.333807C10.304 0.125612 10.0384 0.00396431 9.75739 9.51548e-05C9.47639 -0.003774 9.20735 0.110512 9.01936 0.313613L0.250141 9.7873C-0.00726586 10.0654 -0.0722451 10.4647 0.0842999 10.8065C0.240845 11.1482 0.589591 11.3684 0.974375 11.3684H2.92309V17.0526C2.92309 17.5758 3.35932 18 3.89745 18H7.79488V13.2632H11.6923V18H15.5897C16.1279 18 16.5641 17.5758 16.5641 17.0526V11.3684H18.0256C18.4054 11.3684 18.7506 11.1539 18.91 10.8187C19.0694 10.4835 19.014 10.0889 18.768 9.80749L10.486 0.333807Z" fill="white"/>
</svg>
