<svg width="18" height="20" fill="none" xmlns="http://www.w3.org/2000/svg"><rect x="2" y="15" width="14" height="4" rx="2" fill="#fff"/><path d="m17.968 4.907-2.09 7.349a.994.994 0 0 1-.388.536c-.19.134-.424.208-.665.208H3.179c-.24 0-.475-.074-.665-.208a.994.994 0 0 1-.388-.536L.036 4.907a.91.91 0 0 1 .01-.538.987.987 0 0 1 .317-.454c.149-.122.332-.204.53-.237.196-.033.4-.016.586.05l3.464 1.218a.191.191 0 0 0 .11.005.177.177 0 0 0 .091-.055l3-3.511a1.07 1.07 0 0 1 .38-.284 1.17 1.17 0 0 1 .956 0c.148.067.278.164.38.284l3 3.511a.177.177 0 0 0 .091.055.191.191 0 0 0 .11-.005l3.464-1.218c.186-.063.388-.078.584-.044.195.034.377.116.526.237a.996.996 0 0 1 .316.45.918.918 0 0 1 .017.536z" fill="#fff"/></svg>