<svg width="18" height="20" viewBox="0 0 18 20" fill="none" xmlns="http://www.w3.org/2000/svg">
<rect x="2" y="15" width="14" height="4" rx="2" fill="white"/>
<path d="M17.9681 4.90711L15.8776 12.2559C15.8168 12.4687 15.6805 12.6572 15.49 12.7918C15.2995 12.9264 15.0656 12.9996 14.8247 13H3.17899C2.93813 12.9996 2.7042 12.9264 2.51372 12.7918C2.32324 12.6572 2.18694 12.4687 2.12612 12.2559L0.0356234 4.90711C-0.0152106 4.73022 -0.0115777 4.54395 0.0461216 4.36883C0.103821 4.1937 0.213347 4.03653 0.362628 3.91462C0.511909 3.79271 0.695149 3.7108 0.892154 3.67793C1.08916 3.64505 1.29228 3.66248 1.47913 3.72829L4.94294 4.94612C4.97797 4.95856 5.01645 4.9604 5.05271 4.95137C5.08897 4.94234 5.12109 4.92292 5.14436 4.89596L8.14429 1.38458C8.24554 1.2649 8.37549 1.168 8.52415 1.10133C8.67281 1.03467 8.83623 1 9.00185 1C9.16747 1 9.33088 1.03467 9.47955 1.10133C9.62821 1.168 9.75815 1.2649 9.85941 1.38458L12.8593 4.89596C12.8826 4.92292 12.9147 4.94234 12.951 4.95137C12.9873 4.9604 13.0257 4.95856 13.0608 4.94612L16.5246 3.72829C16.7113 3.66537 16.9133 3.65008 17.1089 3.68408C17.3045 3.71807 17.4862 3.80006 17.6346 3.92124C17.783 4.04242 17.8924 4.19822 17.9512 4.37191C18.0099 4.5456 18.0158 4.73062 17.9681 4.90711Z" fill="white"/>
</svg>
