<svg width="17" height="18" viewBox="0 0 17 18" fill="none" xmlns="http://www.w3.org/2000/svg">
<path fill-rule="evenodd" clip-rule="evenodd" d="M1.3946 11.8892C2.6359 10.2402 4.83429 9 8.5 9C12.1657 9 14.3641 10.2402 15.6054 11.8892C16.8051 13.4828 16.9962 15.3095 17 16.3202C17.0038 17.3366 16.1096 18 15.1929 18H1.80711C0.890355 18 -0.00382411 17.3366 1.23007e-05 16.3202C0.00382754 15.3095 0.194907 13.4828 1.3946 11.8892Z" fill="white"/>
<path fill-rule="evenodd" clip-rule="evenodd" d="M8.50009 7.2C10.5865 7.2 12.2779 5.58822 12.2779 3.6C12.2779 1.61177 10.5865 0 8.50009 0C6.41367 0 4.72229 1.61177 4.72229 3.6C4.72229 5.58822 6.41367 7.2 8.50009 7.2Z" fill="white"/>
</svg>
