<svg width="16" height="18" viewBox="0 0 16 18" fill="none" xmlns="http://www.w3.org/2000/svg">
<path fill-rule="evenodd" clip-rule="evenodd" d="M12.6021 5.16342V6.4412C14.0374 6.88921 15.0832 8.18853 15.0832 9.74042V13.8545C15.0832 15.7757 13.4904 17.3334 11.5267 17.3334H4.47384C2.5093 17.3334 0.916504 15.7757 0.916504 13.8545V9.74042C0.916504 8.18853 1.96313 6.88921 3.39758 6.4412V5.16342C3.40604 2.67907 5.46373 0.666748 7.98714 0.666748C10.5444 0.666748 12.6021 2.67907 12.6021 5.16342ZM8.00407 2.11595C9.72304 2.11595 11.1202 3.48234 11.1202 5.16342V6.2615H4.87944V5.14686C4.88791 3.47406 6.2851 2.11595 8.00407 2.11595ZM8.74077 12.7125C8.74077 13.1183 8.41053 13.4413 7.9956 13.4413C7.58915 13.4413 7.2589 13.1183 7.2589 12.7125V10.8741C7.2589 10.4766 7.58915 10.1536 7.9956 10.1536C8.41053 10.1536 8.74077 10.4766 8.74077 10.8741V12.7125Z" fill="#9E9E9E"/>
</svg>
